<svg xmlns="http://www.w3.org/2000/svg" width="140" height="140"><path fill="#33363a" d="M123.806 47.265a57.382 57.382 0 0 0-5.385-9.914 58.457 58.457 0 0 0-7.121-8.642 58.835 58.835 0 0 0-18.56-12.518 58.821 58.821 0 0 0-10.979-3.401 58.716 58.716 0 0 0-11.759-1.193 58.76 58.76 0 0 0-11.765 1.193 58.728 58.728 0 0 0-10.976 3.401 58.59 58.59 0 0 0-9.927 5.389 59.26 59.26 0 0 0-8.64 7.129 59.033 59.033 0 0 0-7.122 8.642 58.246 58.246 0 0 0-8.797 20.899 58.875 58.875 0 0 0-1.18 11.748c0 3.969.396 7.924 1.18 11.768a58.011 58.011 0 0 0 3.415 10.97 57.974 57.974 0 0 0 5.382 9.927 59.618 59.618 0 0 0 7.122 8.642 59.988 59.988 0 0 0 8.64 7.121 58.485 58.485 0 0 0 9.927 5.382 57.547 57.547 0 0 0 10.976 3.403 58.182 58.182 0 0 0 11.765 1.193c3.955 0 7.914-.397 11.759-1.193a57.825 57.825 0 0 0 10.979-3.403 58.184 58.184 0 0 0 9.914-5.382 59.445 59.445 0 0 0 8.646-7.121 58.977 58.977 0 0 0 7.121-8.642 57.677 57.677 0 0 0 5.385-9.927 58.283 58.283 0 0 0 3.416-10.97 59.425 59.425 0 0 0 1.182-11.768c0-3.957-.403-7.913-1.182-11.748a58.542 58.542 0 0 0-3.416-10.985z"/><path fill="#4c5054" d="M104.738 24.876c.195-.46.368-.931.552-1.396a58.248 58.248 0 0 0-2.637-1.899 58.428 58.428 0 0 0-9.914-5.389 58.821 58.821 0 0 0-10.979-3.401 58.716 58.716 0 0 0-11.759-1.193 58.76 58.76 0 0 0-11.765 1.193 58.728 58.728 0 0 0-10.976 3.401 58.59 58.59 0 0 0-9.927 5.389 59.26 59.26 0 0 0-8.64 7.129 59.033 59.033 0 0 0-7.122 8.642 57.777 57.777 0 0 0-5.382 9.914c-.196.462-.369.935-.554 1.402a60.857 60.857 0 0 0 2.63 1.899 58.447 58.447 0 0 0 9.927 5.382 57.63 57.63 0 0 0 10.975 3.403 58.27 58.27 0 0 0 11.766 1.193c3.955 0 7.914-.398 11.758-1.193a57.852 57.852 0 0 0 10.979-3.403 58.108 58.108 0 0 0 9.914-5.382 59.403 59.403 0 0 0 8.646-7.121 59.09 59.09 0 0 0 7.122-8.642 57.66 57.66 0 0 0 5.386-9.928z"/><path fill="#f26b95" d="M123.806 47.265a57.382 57.382 0 0 0-5.385-9.914 58.457 58.457 0 0 0-7.121-8.642 58.835 58.835 0 0 0-18.56-12.518 58.821 58.821 0 0 0-10.979-3.401 58.716 58.716 0 0 0-11.759-1.193 58.76 58.76 0 0 0-11.765 1.193 58.728 58.728 0 0 0-10.976 3.401 58.59 58.59 0 0 0-9.927 5.389 59.26 59.26 0 0 0-8.64 7.129 59.033 59.033 0 0 0-7.122 8.642 58.246 58.246 0 0 0-8.797 20.899 58.875 58.875 0 0 0-1.18 11.748c0 3.969.396 7.924 1.18 11.768a58.011 58.011 0 0 0 3.415 10.97 57.974 57.974 0 0 0 5.382 9.927 59.618 59.618 0 0 0 7.122 8.642 59.988 59.988 0 0 0 8.64 7.121 58.485 58.485 0 0 0 9.927 5.382 57.547 57.547 0 0 0 10.976 3.403 58.182 58.182 0 0 0 11.765 1.193c3.955 0 7.914-.397 11.759-1.193a57.825 57.825 0 0 0 10.979-3.403 58.184 58.184 0 0 0 9.914-5.382 59.445 59.445 0 0 0 8.646-7.121 58.977 58.977 0 0 0 7.121-8.642 57.677 57.677 0 0 0 5.385-9.927 58.283 58.283 0 0 0 3.416-10.97 59.425 59.425 0 0 0 1.182-11.768c0-3.957-.403-7.913-1.182-11.748a58.542 58.542 0 0 0-3.416-10.985zM70.002 20.126c12.623 0 24.151 4.711 32.94 12.45-.125.185-7.225 10.998-26.059 18.052-8.521-15.662-17.893-28.107-18.635-29.097a49.98 49.98 0 0 1 11.754-1.405zm-11.95 1.447c0 .007-.01.015-.01.015s-.06.015-.15.029c.056-.014.104-.022.16-.044zm-9.336 3.323c.668.887 9.892 13.393 18.527 28.736-23.953 6.364-44.74 6.111-46.051 6.089 3.235-15.449 13.609-28.257 27.524-34.825zm-15.815 78.432c-7.945-8.839-12.782-20.519-12.782-33.33 0-.532.026-1.054.042-1.575.886.021 25.527.578 51.207-7.107a166.883 166.883 0 0 1 4.048 8.483c-.659.176-1.313.374-1.967.595-26.914 8.695-40.569 32.908-40.569 32.908l.021.026zm37.101 16.552c-11.778 0-22.601-4.092-31.14-10.926.291.227.48.365.48.365s9.56-20.851 39.143-31.157c.107-.04.226-.069.336-.102 7.016 18.23 9.908 33.505 10.65 37.863a49.648 49.648 0 0 1-19.469 3.957zm27.868-8.515c-.508-3.009-3.163-17.649-9.709-35.621 16.105-2.575 30.054 1.841 31.085 2.178-2.218 13.897-10.181 25.881-21.376 33.443zM85.13 67.868c-.361-.853-.712-1.711-1.082-2.568a150.384 150.384 0 0 0-3.316-7.237c19.698-8.04 27.691-19.603 27.786-19.737a49.657 49.657 0 0 1 11.346 31.177c-.719-.157-17.599-3.793-34.734-1.635z"/><path fill="none" stroke="#33363a" stroke-linecap="round" stroke-linejoin="round" stroke-miterlimit="10" stroke-width="3" d="M123.806 47.265a57.382 57.382 0 00-5.385-9.914 58.457 58.457 0 00-7.121-8.642 58.835 58.835 0 00-18.56-12.518 58.821 58.821 0 00-10.979-3.401 58.716 58.716 0 00-11.759-1.193 58.76 58.76 0 00-11.765 1.193 58.728 58.728 0 00-10.976 3.401 58.59 58.59 0 00-9.927 5.389 59.26 59.26 0 00-8.64 7.129 59.033 59.033 0 00-7.122 8.642 58.246 58.246 0 00-8.797 20.899 58.875 58.875 0 00-1.18 11.748c0 3.969.396 7.924 1.18 11.768a58.011 58.011 0 003.415 10.97 57.974 57.974 0 005.382 9.927 59.618 59.618 0 007.122 8.642 59.988 59.988 0 008.64 7.121 58.485 58.485 0 009.927 5.382 57.547 57.547 0 0010.976 3.403 58.182 58.182 0 0011.765 1.193c3.955 0 7.914-.397 11.759-1.193a57.825 57.825 0 0010.979-3.403 58.184 58.184 0 009.914-5.382 59.445 59.445 0 008.646-7.121 58.977 58.977 0 007.121-8.642 57.677 57.677 0 005.385-9.927 58.283 58.283 0 003.416-10.97 59.425 59.425 0 001.182-11.768c0-3.957-.403-7.913-1.182-11.748a58.542 58.542 0 00-3.416-10.985zM70.002 20.126c12.623 0 24.151 4.711 32.94 12.45-.125.185-7.225 10.998-26.059 18.052-8.521-15.662-17.893-28.107-18.635-29.097a49.98 49.98 0 0111.754-1.405zm-11.95 1.447c0 .007-.01.015-.01.015s-.06.015-.15.029c.056-.014.104-.022.16-.044zm-9.336 3.323c.668.887 9.892 13.393 18.527 28.736-23.953 6.364-44.74 6.111-46.051 6.089 3.235-15.449 13.609-28.257 27.524-34.825zm-15.815 78.432c-7.945-8.839-12.782-20.519-12.782-33.33 0-.532.026-1.054.042-1.575.886.021 25.527.578 51.207-7.107a166.883 166.883 0 014.048 8.483c-.659.176-1.313.374-1.967.595-26.914 8.695-40.569 32.908-40.569 32.908l.021.026zm37.101 16.552c-11.778 0-22.601-4.092-31.14-10.926.291.227.48.365.48.365s9.56-20.851 39.143-31.157c.107-.04.226-.069.336-.102 7.016 18.23 9.908 33.505 10.65 37.863a49.648 49.648 0 01-19.469 3.957zm27.868-8.515c-.508-3.009-3.163-17.649-9.709-35.621 16.105-2.575 30.054 1.841 31.085 2.178-2.218 13.897-10.181 25.881-21.376 33.443zM85.13 67.868c-.361-.853-.712-1.711-1.082-2.568a150.384 150.384 0 00-3.316-7.237c19.698-8.04 27.691-19.603 27.786-19.737a49.657 49.657 0 0111.346 31.177c-.719-.157-17.599-3.793-34.734-1.635zM21.574 128.403h5.893M40.22 128.403h32.443M32.771 128.403h1.099"/></svg>