<svg xmlns="http://www.w3.org/2000/svg" xmlns:xlink="http://www.w3.org/1999/xlink" id="Layer_1" width="100%" x="0" y="0" enable-background="new 0 0 100 100" version="1.1" viewBox="0 0 100 100" xml:space="preserve"><path fill="#000" stroke="none" d="M62.000000,101.000000 C41.333336,101.000000 21.166674,101.000000 1.000008,101.000000 C1.000005,67.666679 1.000005,34.333351 1.000003,1.000021 C34.333317,1.000014 67.666634,1.000014 100.999969,1.000007 C100.999977,34.333313 100.999977,67.666626 100.999985,100.999969 C88.166664,101.000000 75.333336,101.000000 62.000000,101.000000 M17.995750,68.791031 C21.025360,72.531067 23.666752,76.690598 27.163141,79.926239 C35.126724,87.295914 45.027893,88.790718 55.469872,88.007103 C65.408401,87.261276 73.525612,82.780212 79.853065,75.359009 C86.892159,67.103157 88.827065,57.210598 88.051727,46.538681 C87.392563,37.465858 83.383202,29.912128 77.144043,23.869099 C69.337967,16.308397 59.663769,13.245721 48.559818,13.888803 C34.838127,14.683492 25.018408,21.117325 18.086687,32.620064 C12.943288,41.155197 14.073805,50.629295 13.229362,60.251331 C10.325697,65.986023 11.458283,67.881027 17.995750,68.791031 M82.714119,19.992247 C86.305717,20.466545 88.378487,19.566187 88.075897,15.264955 C87.792862,11.241804 85.077835,11.842916 82.749260,12.071219 C79.220909,12.417153 78.826752,16.228035 82.714119,19.992247 z" opacity="1"/><path fill="#FCE0A2" stroke="none" d="M13.943722,59.918167 C14.073805,50.629295 12.943288,41.155197 18.086687,32.620064 C25.018408,21.117325 34.838127,14.683492 48.559818,13.888803 C59.663769,13.245721 69.337967,16.308397 77.144043,23.869099 C83.383202,29.912128 87.392563,37.465858 88.051727,46.538681 C88.827065,57.210598 86.892159,67.103157 79.853065,75.359009 C73.525612,82.780212 65.408401,87.261276 55.469872,88.007103 C45.027893,88.790718 35.126724,87.295914 27.163141,79.926239 C23.666752,76.690598 21.025360,72.531067 18.127485,68.116714 C21.180378,62.508148 20.082968,60.594776 13.943722,59.918167 M30.513174,31.069477 C29.673716,33.688339 28.213520,36.283039 28.110458,38.930565 C27.793335,47.077095 27.936531,55.244389 28.013716,63.402546 C28.078575,70.257942 31.676830,73.909431 38.479424,73.982597 C46.803852,74.072113 55.130642,74.068924 63.455162,73.983864 C70.286713,73.914062 73.912476,70.290878 73.983437,63.459148 C74.069901,55.134655 74.071251,46.807865 73.982895,38.483414 C73.910736,31.684446 70.256897,28.079550 63.405956,28.013990 C55.247814,27.935921 47.080524,27.793552 38.933971,28.110369 C36.285969,28.213348 33.690693,29.672035 30.513174,31.069477 z" opacity="1"/><path fill="#F1BC19" stroke="none" d="M82.279251,19.965445 C78.826752,16.228035 79.220909,12.417153 82.749260,12.071219 C85.077835,11.842916 87.792862,11.241804 88.075897,15.264955 C88.378487,19.566187 86.305717,20.466545 82.279251,19.965445 z" opacity="1"/><path fill="#FBCD5B" stroke="none" d="M13.586542,60.084747 C20.082968,60.594776 21.180378,62.508148 18.080906,67.756401 C11.458283,67.881027 10.325697,65.986023 13.586542,60.084747 z" opacity="1"/><path fill="#4A2D2B" stroke="none" d="M30.792236,30.790058 C33.690693,29.672035 36.285969,28.213348 38.933971,28.110369 C47.080524,27.793552 55.247814,27.935921 63.405956,28.013990 C70.256897,28.079550 73.910736,31.684446 73.982895,38.483414 C74.071251,46.807865 74.069901,55.134655 73.983437,63.459148 C73.912476,70.290878 70.286713,73.914062 63.455162,73.983864 C55.130642,74.068924 46.803852,74.072113 38.479424,73.982597 C31.676830,73.909431 28.078575,70.257942 28.013716,63.402546 C27.936531,55.244389 27.793335,47.077095 28.110458,38.930565 C28.213520,36.283039 29.673716,33.688339 30.792236,30.790058 M56.518311,34.382034 C54.801121,34.286816 53.083931,34.191597 50.859997,34.068275 C50.859997,43.321316 50.859997,52.037273 50.095905,60.891808 C47.835651,60.790863 45.575397,60.689919 43.315144,60.588978 C44.035809,58.429874 44.707012,56.252541 45.493843,54.117828 C46.054756,52.596043 46.771145,51.131565 47.516510,49.414993 C39.687248,48.586494 34.209717,54.640537 36.090778,61.012089 C37.127522,64.523766 42.510258,67.794876 47.211388,68.037727 C52.046841,68.287506 55.846500,66.729309 56.864716,61.749184 C57.839386,56.982040 58.017895,52.052116 58.566254,47.010616 C60.563835,47.332825 62.585716,47.658955 66.162201,48.235840 C64.835617,45.354008 64.285851,43.302834 63.087044,41.754032 C61.236889,39.363728 58.942459,37.317299 56.518311,34.382034 z" opacity="1"/><path fill="#F5F5F4" stroke="none" d="M56.836472,35.125015 C58.942459,37.317299 61.236889,39.363728 63.087044,41.754032 C64.285851,43.302834 64.835617,45.354008 66.162201,48.235840 C62.585716,47.658955 60.563835,47.332825 58.566254,47.010616 C58.017895,52.052116 57.839386,56.982040 56.864716,61.749184 C55.846500,66.729309 52.046841,68.287506 47.211388,68.037727 C42.510258,67.794876 37.127522,64.523766 36.090778,61.012089 C34.209717,54.640537 39.687248,48.586494 47.516510,49.414993 C46.771145,51.131565 46.054756,52.596043 45.493843,54.117828 C44.707012,56.252541 44.035809,58.429874 43.315144,60.588974 C45.575397,60.689919 47.835651,60.790863 50.895699,60.724716 C51.876564,53.772751 52.283993,46.983307 52.147331,40.204834 C52.074280,36.581814 53.137444,34.856113 56.836472,35.125015 z" opacity="1"/><path fill="#77A293" stroke="none" d="M56.677391,34.753525 C53.137444,34.856113 52.074280,36.581814 52.147331,40.204834 C52.283993,46.983307 51.876564,53.772751 51.277744,60.655426 C50.859997,52.037273 50.859997,43.321316 50.859997,34.068275 C53.083931,34.191597 54.801121,34.286816 56.677391,34.753525 z" opacity="1"/></svg>