<svg xmlns="http://www.w3.org/2000/svg" xmlns:xlink="http://www.w3.org/1999/xlink" id="Layer_1" width="100%" x="0" y="0" enable-background="new 0 0 100 100" version="1.1" viewBox="0 0 100 100" xml:space="preserve"><path fill="#000" stroke="none" d="M59.000000,101.000000 C39.333336,101.000000 20.166674,101.000000 1.000008,101.000000 C1.000005,67.666679 1.000005,34.333351 1.000003,1.000021 C34.333317,1.000014 67.666634,1.000014 100.999969,1.000007 C100.999977,34.333313 100.999977,67.666626 100.999985,100.999969 C87.166664,101.000000 73.333336,101.000000 59.000000,101.000000 M80.998489,42.000500 C78.986374,35.414570 86.836197,33.709351 87.952507,28.212133 C86.321404,28.496122 84.981613,28.729391 83.461456,28.994062 C84.480461,26.775377 85.365219,24.848993 86.852577,21.610569 C81.061569,24.807274 76.855278,25.485437 71.943489,22.642578 C64.411263,18.283051 55.696323,21.517464 51.940434,29.552082 C50.596916,32.426128 50.033089,35.664650 49.012352,39.074322 C37.445236,37.937313 27.979916,32.305737 19.747562,23.391855 C16.615936,30.115479 16.461426,35.841774 20.304211,41.708946 C20.176220,41.838921 20.048229,41.968895 19.143309,42.039700 C18.584866,42.991665 17.314949,44.283520 17.581457,44.841385 C19.568228,49.000202 21.859344,53.013626 24.202013,57.344368 C24.285557,57.219254 22.980951,58.355961 23.191631,58.985855 C24.995424,64.378838 29.620562,66.711800 34.610008,68.552002 C34.661205,69.036903 34.712402,69.521797 34.763596,70.006691 C28.294706,71.664810 21.825817,73.322937 15.416293,74.965843 C21.448584,78.790375 28.180424,81.359581 35.978386,81.873520 C35.693005,84.075378 36.261040,85.125778 38.877579,85.061256 C50.231876,84.781258 60.152420,80.787598 68.800156,73.647392 C76.903076,66.957024 80.903954,57.675900 83.843414,47.941547 C84.414940,46.048859 85.364456,42.606953 80.998489,42.000500 z" opacity="1"/><path fill="#4343C0" stroke="none" d="M35.834251,81.001411 C28.180424,81.359581 21.448584,78.790375 15.416293,74.965843 C21.825817,73.322937 28.294706,71.664810 34.763596,70.006691 C34.712402,69.521797 34.661205,69.036903 34.610008,68.552002 C29.620562,66.711800 24.995424,64.378838 23.191631,58.985855 C22.980951,58.355961 24.285557,57.219254 24.202013,57.344368 C21.859344,53.013626 19.568228,49.000202 17.581457,44.841385 C17.314949,44.283520 18.584866,42.991665 19.656063,42.321342 C20.601974,42.645172 21.035130,42.687363 21.468285,42.729557 C21.208710,42.259830 20.949133,41.790108 20.689558,41.320381 C16.461426,35.841774 16.615936,30.115479 19.747562,23.391855 C27.979916,32.305737 37.445236,37.937313 49.012352,39.074322 C50.033089,35.664650 50.596916,32.426128 51.940434,29.552082 C55.696323,21.517464 64.411263,18.283051 71.943489,22.642578 C76.855278,25.485437 81.061569,24.807274 86.852577,21.610569 C85.365219,24.848993 84.480461,26.775377 83.461456,28.994062 C84.981613,28.729391 86.321404,28.496122 87.952507,28.212133 C86.836197,33.709351 78.986374,35.414570 80.575134,42.469162 C78.150650,42.847713 76.149506,42.757599 74.153656,42.244049 C73.993759,39.169056 74.188225,36.431973 73.582550,33.885170 C72.571152,29.632278 69.443825,27.385056 65.132858,27.602823 C60.895161,27.816889 57.923542,30.176205 57.123295,34.511906 C56.798363,36.272392 56.971428,38.167023 57.167297,39.973576 C57.781845,45.641682 57.328690,46.282330 51.441868,45.892555 C48.136730,45.673721 44.830887,45.092052 41.590244,44.378971 C38.421349,43.681683 35.334881,42.609795 31.389132,41.463146 C32.696972,43.795399 33.543285,45.304623 34.430580,46.886917 C32.908138,48.146809 31.608364,49.222435 29.964249,50.583019 C33.815689,52.466984 37.151810,54.098877 40.770168,55.868828 C39.298119,58.071712 38.227947,59.673199 37.160736,61.270248 C43.783371,65.801155 43.781483,65.800026 39.334957,73.216187 C39.079193,73.642761 38.894218,74.111786 38.303070,74.687309 C37.231312,76.876175 36.532784,78.938789 35.834251,81.001411 M29.558210,40.496342 C29.558210,40.496342 29.505016,40.516129 29.558210,40.496342 z" opacity="1"/><path fill="#3ABBF8" stroke="none" d="M35.906319,81.437469 C36.532784,78.938789 37.231312,76.876175 38.721458,74.695747 C59.230373,71.877907 69.090088,62.793873 74.148369,42.667488 C76.149506,42.757599 78.150650,42.847713 80.577087,42.886955 C85.364456,42.606953 84.414940,46.048859 83.843414,47.941547 C80.903954,57.675900 76.903076,66.957024 68.800156,73.647392 C60.152420,80.787598 50.231876,84.781258 38.877579,85.061256 C36.261040,85.125778 35.693005,84.075378 35.906319,81.437469 z" opacity="1"/><path fill="#4B4EFE" stroke="none" d="M74.153656,42.244049 C69.090088,62.793873 59.230373,71.877907 39.094692,74.569504 C38.894218,74.111786 39.079193,73.642761 39.334957,73.216187 C43.781483,65.800026 43.783371,65.801155 37.160736,61.270248 C38.227947,59.673199 39.298119,58.071712 40.770168,55.868828 C37.151810,54.098877 33.815689,52.466984 29.964249,50.583019 C31.608364,49.222435 32.908138,48.146809 34.430580,46.886917 C33.543285,45.304623 32.696972,43.795399 31.389132,41.463146 C35.334881,42.609795 38.421349,43.681683 41.590244,44.378971 C44.830887,45.092052 48.136730,45.673721 51.441868,45.892555 C57.328690,46.282330 57.781845,45.641682 57.167297,39.973576 C56.971428,38.167023 56.798363,36.272392 57.123295,34.511906 C57.923542,30.176205 60.895161,27.816889 65.132858,27.602823 C69.443825,27.385056 72.571152,29.632278 73.582550,33.885170 C74.188225,36.431973 73.993759,39.169056 74.153656,42.244049 z" opacity="1"/><path fill="#000" stroke="none" d="M20.496883,41.514664 C20.949133,41.790108 21.208710,42.259830 21.468285,42.729557 C21.035130,42.687363 20.601974,42.645172 20.044529,42.350925 C20.048229,41.968895 20.176220,41.838921 20.496883,41.514664 z" opacity="1"/><path fill="#4B4EFE" stroke="none" d="M29.531612,40.506233 C29.505016,40.516129 29.558210,40.496342 29.531612,40.506233 z" opacity="1"/></svg>